G75*
G70*
%OFA0B0*%
%FSLAX24Y24*%
%IPPOS*%
%LPD*%
%AMOC8*
5,1,8,0,0,1.08239X$1,22.5*
%
%ADD10C,0.1260*%
%ADD11C,0.0560*%
%ADD12C,0.1040*%
%ADD13C,0.1640*%
%ADD14OC8,0.0560*%
%ADD15C,0.0634*%
%ADD16OC8,0.0800*%
%ADD17OC8,0.0670*%
%ADD18C,0.0670*%
%ADD19OC8,0.0700*%
%ADD20C,0.0640*%
%ADD21C,0.0800*%
D10*
X004182Y002189D03*
X023182Y002189D03*
X025382Y024889D03*
X001982Y024889D03*
D11*
X004722Y018289D02*
X005242Y018289D01*
X007722Y018289D02*
X008242Y018289D01*
X010682Y016949D02*
X010682Y016429D01*
X011682Y016429D02*
X011682Y016949D01*
X012682Y016949D02*
X012682Y016429D01*
X013682Y016429D02*
X013682Y016949D01*
X014682Y016949D02*
X014682Y016429D01*
X015682Y016429D02*
X015682Y016949D01*
X016682Y016949D02*
X016682Y016429D01*
X016682Y013949D02*
X016682Y013429D01*
X015682Y013429D02*
X015682Y013949D01*
X014682Y013949D02*
X014682Y013429D01*
X013682Y013429D02*
X013682Y013949D01*
X012682Y013949D02*
X012682Y013429D01*
X011682Y013429D02*
X011682Y013949D01*
X010682Y013949D02*
X010682Y013429D01*
X007442Y012189D02*
X006922Y012189D01*
X006922Y011189D02*
X007442Y011189D01*
X007442Y010189D02*
X006922Y010189D01*
X006922Y009189D02*
X007442Y009189D01*
X007442Y008189D02*
X006922Y008189D01*
X006922Y007189D02*
X007442Y007189D01*
X007442Y006189D02*
X006922Y006189D01*
X006922Y005189D02*
X007442Y005189D01*
X007442Y004189D02*
X006922Y004189D01*
X004442Y004189D02*
X003922Y004189D01*
X003922Y005189D02*
X004442Y005189D01*
X004442Y006189D02*
X003922Y006189D01*
X003922Y007189D02*
X004442Y007189D01*
X004442Y008189D02*
X003922Y008189D01*
X003922Y009189D02*
X004442Y009189D01*
X004442Y010189D02*
X003922Y010189D01*
X003922Y011189D02*
X004442Y011189D01*
X004442Y012189D02*
X003922Y012189D01*
X011662Y019189D02*
X012182Y019189D01*
X012182Y020189D02*
X011662Y020189D01*
X011662Y021189D02*
X012182Y021189D01*
X012182Y022189D02*
X011662Y022189D01*
X015182Y022189D02*
X015702Y022189D01*
X015702Y021189D02*
X015182Y021189D01*
X015182Y020189D02*
X015702Y020189D01*
X015702Y019189D02*
X015182Y019189D01*
X019922Y012189D02*
X020442Y012189D01*
X020442Y011189D02*
X019922Y011189D01*
X019922Y010189D02*
X020442Y010189D01*
X020442Y009189D02*
X019922Y009189D01*
X019922Y008189D02*
X020442Y008189D01*
X020442Y007189D02*
X019922Y007189D01*
X019922Y006189D02*
X020442Y006189D01*
X020442Y005189D02*
X019922Y005189D01*
X019922Y004189D02*
X020442Y004189D01*
X022922Y004189D02*
X023442Y004189D01*
X023442Y005189D02*
X022922Y005189D01*
X022922Y006189D02*
X023442Y006189D01*
X023442Y007189D02*
X022922Y007189D01*
X022922Y008189D02*
X023442Y008189D01*
X023442Y009189D02*
X022922Y009189D01*
X022922Y010189D02*
X023442Y010189D01*
X023442Y011189D02*
X022922Y011189D01*
X022922Y012189D02*
X023442Y012189D01*
D12*
X009682Y021689D03*
X008682Y020689D03*
X006682Y021689D03*
X004682Y020689D03*
X003682Y021689D03*
D13*
X004682Y025689D03*
X006682Y025689D03*
X008682Y025689D03*
D14*
X012182Y017989D03*
X015182Y017989D03*
X016532Y019189D03*
X017532Y018189D03*
X018182Y015689D03*
X018182Y014689D03*
X020182Y013689D03*
X023182Y013689D03*
X017182Y012189D03*
X017182Y011189D03*
X017182Y010189D03*
X017182Y009189D03*
X017182Y008189D03*
X017182Y007189D03*
X017182Y006189D03*
X017182Y005189D03*
X014182Y005189D03*
X013182Y005189D03*
X013182Y006189D03*
X014182Y006189D03*
X014182Y007189D03*
X013182Y007189D03*
X013182Y008189D03*
X014182Y008189D03*
X014182Y009189D03*
X014182Y010189D03*
X013182Y010189D03*
X013182Y009189D03*
X013182Y011189D03*
X014182Y011189D03*
X014182Y012189D03*
X013182Y012189D03*
X010182Y012189D03*
X010182Y011189D03*
X010182Y010189D03*
X010182Y009189D03*
X010182Y008189D03*
X010182Y007189D03*
X010182Y006189D03*
X010182Y005189D03*
X007182Y017239D03*
X004182Y017239D03*
X016532Y022189D03*
X017532Y021189D03*
X020682Y022189D03*
X021682Y022189D03*
X021682Y020689D03*
X022682Y020689D03*
D15*
X016182Y003986D02*
X016182Y003392D01*
X015182Y003392D02*
X015182Y003986D01*
X014182Y003986D02*
X014182Y003392D01*
X013182Y003392D02*
X013182Y003986D01*
X012182Y003986D02*
X012182Y003392D01*
X011182Y003392D02*
X011182Y003986D01*
D16*
X001682Y002189D03*
X001682Y004189D03*
X001682Y006189D03*
X001682Y008189D03*
X001682Y010189D03*
X001682Y012189D03*
X001682Y014189D03*
X001682Y016189D03*
X012682Y024739D03*
X014682Y024739D03*
X025682Y016189D03*
X025682Y014189D03*
X025682Y012189D03*
X025682Y010189D03*
X025682Y008189D03*
X025682Y006189D03*
X025682Y004189D03*
X025682Y002189D03*
D17*
X024682Y018439D03*
X024682Y021689D03*
D18*
X024682Y022689D03*
X024682Y019439D03*
D19*
X021682Y016189D03*
X021682Y015189D03*
X018682Y012189D03*
X018682Y011189D03*
X018682Y010189D03*
X018682Y009189D03*
X018682Y008189D03*
X018682Y007189D03*
X018682Y006189D03*
X018682Y005189D03*
X008682Y005189D03*
X008682Y006189D03*
X008682Y007189D03*
X008682Y008189D03*
X008682Y009189D03*
X008682Y010189D03*
X008682Y011189D03*
X008682Y012189D03*
X005682Y015189D03*
X005682Y016189D03*
D20*
X019102Y017799D02*
X019702Y017799D01*
X019702Y019579D02*
X019102Y019579D01*
X021662Y019579D02*
X022262Y019579D01*
X022262Y017799D02*
X021662Y017799D01*
X021682Y023889D02*
X021682Y024489D01*
X022682Y024489D02*
X022682Y023889D01*
X020682Y023889D02*
X020682Y024489D01*
D21*
X018682Y024689D03*
X018682Y020689D03*
M02*
