G75*
G70*
%OFA0B0*%
%FSLAX24Y24*%
%IPPOS*%
%LPD*%
%AMOC8*
5,1,8,0,0,1.08239X$1,22.5*
%
%ADD10C,0.0000*%
%ADD11C,0.0160*%
%ADD12C,0.0520*%
%ADD13C,0.1000*%
%ADD14C,0.1600*%
%ADD15OC8,0.0520*%
%ADD16C,0.0594*%
%ADD17OC8,0.0760*%
%ADD18OC8,0.0630*%
%ADD19C,0.0630*%
%ADD20OC8,0.0660*%
%ADD21C,0.0600*%
%ADD22C,0.0760*%
%ADD23C,0.0400*%
D10*
X000182Y000889D02*
X000182Y002689D01*
X003572Y002189D02*
X003574Y002238D01*
X003580Y002287D01*
X003590Y002335D01*
X003603Y002382D01*
X003621Y002428D01*
X003642Y002472D01*
X003666Y002515D01*
X003694Y002555D01*
X003725Y002594D01*
X003759Y002629D01*
X003796Y002662D01*
X003835Y002691D01*
X003877Y002717D01*
X003920Y002740D01*
X003966Y002759D01*
X004012Y002775D01*
X004060Y002787D01*
X004108Y002795D01*
X004157Y002799D01*
X004207Y002799D01*
X004256Y002795D01*
X004304Y002787D01*
X004352Y002775D01*
X004398Y002759D01*
X004444Y002740D01*
X004487Y002717D01*
X004529Y002691D01*
X004568Y002662D01*
X004605Y002629D01*
X004639Y002594D01*
X004670Y002555D01*
X004698Y002515D01*
X004722Y002472D01*
X004743Y002428D01*
X004761Y002382D01*
X004774Y002335D01*
X004784Y002287D01*
X004790Y002238D01*
X004792Y002189D01*
X004790Y002140D01*
X004784Y002091D01*
X004774Y002043D01*
X004761Y001996D01*
X004743Y001950D01*
X004722Y001906D01*
X004698Y001863D01*
X004670Y001823D01*
X004639Y001784D01*
X004605Y001749D01*
X004568Y001716D01*
X004529Y001687D01*
X004487Y001661D01*
X004444Y001638D01*
X004398Y001619D01*
X004352Y001603D01*
X004304Y001591D01*
X004256Y001583D01*
X004207Y001579D01*
X004157Y001579D01*
X004108Y001583D01*
X004060Y001591D01*
X004012Y001603D01*
X003966Y001619D01*
X003920Y001638D01*
X003877Y001661D01*
X003835Y001687D01*
X003796Y001716D01*
X003759Y001749D01*
X003725Y001784D01*
X003694Y001823D01*
X003666Y001863D01*
X003642Y001906D01*
X003621Y001950D01*
X003603Y001996D01*
X003590Y002043D01*
X003580Y002091D01*
X003574Y002140D01*
X003572Y002189D01*
X022572Y002189D02*
X022574Y002238D01*
X022580Y002287D01*
X022590Y002335D01*
X022603Y002382D01*
X022621Y002428D01*
X022642Y002472D01*
X022666Y002515D01*
X022694Y002555D01*
X022725Y002594D01*
X022759Y002629D01*
X022796Y002662D01*
X022835Y002691D01*
X022877Y002717D01*
X022920Y002740D01*
X022966Y002759D01*
X023012Y002775D01*
X023060Y002787D01*
X023108Y002795D01*
X023157Y002799D01*
X023207Y002799D01*
X023256Y002795D01*
X023304Y002787D01*
X023352Y002775D01*
X023398Y002759D01*
X023444Y002740D01*
X023487Y002717D01*
X023529Y002691D01*
X023568Y002662D01*
X023605Y002629D01*
X023639Y002594D01*
X023670Y002555D01*
X023698Y002515D01*
X023722Y002472D01*
X023743Y002428D01*
X023761Y002382D01*
X023774Y002335D01*
X023784Y002287D01*
X023790Y002238D01*
X023792Y002189D01*
X023790Y002140D01*
X023784Y002091D01*
X023774Y002043D01*
X023761Y001996D01*
X023743Y001950D01*
X023722Y001906D01*
X023698Y001863D01*
X023670Y001823D01*
X023639Y001784D01*
X023605Y001749D01*
X023568Y001716D01*
X023529Y001687D01*
X023487Y001661D01*
X023444Y001638D01*
X023398Y001619D01*
X023352Y001603D01*
X023304Y001591D01*
X023256Y001583D01*
X023207Y001579D01*
X023157Y001579D01*
X023108Y001583D01*
X023060Y001591D01*
X023012Y001603D01*
X022966Y001619D01*
X022920Y001638D01*
X022877Y001661D01*
X022835Y001687D01*
X022796Y001716D01*
X022759Y001749D01*
X022725Y001784D01*
X022694Y001823D01*
X022666Y001863D01*
X022642Y001906D01*
X022621Y001950D01*
X022603Y001996D01*
X022590Y002043D01*
X022580Y002091D01*
X022574Y002140D01*
X022572Y002189D01*
X024772Y024889D02*
X024774Y024938D01*
X024780Y024987D01*
X024790Y025035D01*
X024803Y025082D01*
X024821Y025128D01*
X024842Y025172D01*
X024866Y025215D01*
X024894Y025255D01*
X024925Y025294D01*
X024959Y025329D01*
X024996Y025362D01*
X025035Y025391D01*
X025077Y025417D01*
X025120Y025440D01*
X025166Y025459D01*
X025212Y025475D01*
X025260Y025487D01*
X025308Y025495D01*
X025357Y025499D01*
X025407Y025499D01*
X025456Y025495D01*
X025504Y025487D01*
X025552Y025475D01*
X025598Y025459D01*
X025644Y025440D01*
X025687Y025417D01*
X025729Y025391D01*
X025768Y025362D01*
X025805Y025329D01*
X025839Y025294D01*
X025870Y025255D01*
X025898Y025215D01*
X025922Y025172D01*
X025943Y025128D01*
X025961Y025082D01*
X025974Y025035D01*
X025984Y024987D01*
X025990Y024938D01*
X025992Y024889D01*
X025990Y024840D01*
X025984Y024791D01*
X025974Y024743D01*
X025961Y024696D01*
X025943Y024650D01*
X025922Y024606D01*
X025898Y024563D01*
X025870Y024523D01*
X025839Y024484D01*
X025805Y024449D01*
X025768Y024416D01*
X025729Y024387D01*
X025687Y024361D01*
X025644Y024338D01*
X025598Y024319D01*
X025552Y024303D01*
X025504Y024291D01*
X025456Y024283D01*
X025407Y024279D01*
X025357Y024279D01*
X025308Y024283D01*
X025260Y024291D01*
X025212Y024303D01*
X025166Y024319D01*
X025120Y024338D01*
X025077Y024361D01*
X025035Y024387D01*
X024996Y024416D01*
X024959Y024449D01*
X024925Y024484D01*
X024894Y024523D01*
X024866Y024563D01*
X024842Y024606D01*
X024821Y024650D01*
X024803Y024696D01*
X024790Y024743D01*
X024780Y024791D01*
X024774Y024840D01*
X024772Y024889D01*
X001372Y024889D02*
X001374Y024938D01*
X001380Y024987D01*
X001390Y025035D01*
X001403Y025082D01*
X001421Y025128D01*
X001442Y025172D01*
X001466Y025215D01*
X001494Y025255D01*
X001525Y025294D01*
X001559Y025329D01*
X001596Y025362D01*
X001635Y025391D01*
X001677Y025417D01*
X001720Y025440D01*
X001766Y025459D01*
X001812Y025475D01*
X001860Y025487D01*
X001908Y025495D01*
X001957Y025499D01*
X002007Y025499D01*
X002056Y025495D01*
X002104Y025487D01*
X002152Y025475D01*
X002198Y025459D01*
X002244Y025440D01*
X002287Y025417D01*
X002329Y025391D01*
X002368Y025362D01*
X002405Y025329D01*
X002439Y025294D01*
X002470Y025255D01*
X002498Y025215D01*
X002522Y025172D01*
X002543Y025128D01*
X002561Y025082D01*
X002574Y025035D01*
X002584Y024987D01*
X002590Y024938D01*
X002592Y024889D01*
X002590Y024840D01*
X002584Y024791D01*
X002574Y024743D01*
X002561Y024696D01*
X002543Y024650D01*
X002522Y024606D01*
X002498Y024563D01*
X002470Y024523D01*
X002439Y024484D01*
X002405Y024449D01*
X002368Y024416D01*
X002329Y024387D01*
X002287Y024361D01*
X002244Y024338D01*
X002198Y024319D01*
X002152Y024303D01*
X002104Y024291D01*
X002056Y024283D01*
X002007Y024279D01*
X001957Y024279D01*
X001908Y024283D01*
X001860Y024291D01*
X001812Y024303D01*
X001766Y024319D01*
X001720Y024338D01*
X001677Y024361D01*
X001635Y024387D01*
X001596Y024416D01*
X001559Y024449D01*
X001525Y024484D01*
X001494Y024523D01*
X001466Y024563D01*
X001442Y024606D01*
X001421Y024650D01*
X001403Y024696D01*
X001390Y024743D01*
X001380Y024791D01*
X001374Y024840D01*
X001372Y024889D01*
D11*
X000182Y025189D02*
X000184Y025265D01*
X000190Y025341D01*
X000199Y025416D01*
X000213Y025491D01*
X000230Y025565D01*
X000251Y025638D01*
X000275Y025710D01*
X000304Y025781D01*
X000335Y025850D01*
X000370Y025917D01*
X000409Y025982D01*
X000451Y026046D01*
X000496Y026107D01*
X000544Y026166D01*
X000595Y026222D01*
X000649Y026276D01*
X000705Y026327D01*
X000764Y026375D01*
X000825Y026420D01*
X000889Y026462D01*
X000954Y026501D01*
X001021Y026536D01*
X001090Y026567D01*
X001161Y026596D01*
X001233Y026620D01*
X001306Y026641D01*
X001380Y026658D01*
X001455Y026672D01*
X001530Y026681D01*
X001606Y026687D01*
X001682Y026689D01*
X025682Y026689D01*
X025758Y026687D01*
X025834Y026681D01*
X025909Y026672D01*
X025984Y026658D01*
X026058Y026641D01*
X026131Y026620D01*
X026203Y026596D01*
X026274Y026567D01*
X026343Y026536D01*
X026410Y026501D01*
X026475Y026462D01*
X026539Y026420D01*
X026600Y026375D01*
X026659Y026327D01*
X026715Y026276D01*
X026769Y026222D01*
X026820Y026166D01*
X026868Y026107D01*
X026913Y026046D01*
X026955Y025982D01*
X026994Y025917D01*
X027029Y025850D01*
X027060Y025781D01*
X027089Y025710D01*
X027113Y025638D01*
X027134Y025565D01*
X027151Y025491D01*
X027165Y025416D01*
X027174Y025341D01*
X027180Y025265D01*
X027182Y025189D01*
X027182Y001189D01*
X027180Y001129D01*
X027175Y001068D01*
X027166Y001009D01*
X027153Y000950D01*
X027137Y000891D01*
X027117Y000834D01*
X027094Y000779D01*
X027067Y000724D01*
X027038Y000672D01*
X027005Y000621D01*
X026969Y000572D01*
X026931Y000526D01*
X026889Y000482D01*
X026845Y000440D01*
X026799Y000402D01*
X026750Y000366D01*
X026699Y000333D01*
X026647Y000304D01*
X026592Y000277D01*
X026537Y000254D01*
X026480Y000234D01*
X026421Y000218D01*
X026362Y000205D01*
X026303Y000196D01*
X026242Y000191D01*
X026182Y000189D01*
X001182Y000189D01*
X001122Y000191D01*
X001061Y000196D01*
X001002Y000205D01*
X000943Y000218D01*
X000884Y000234D01*
X000827Y000254D01*
X000772Y000277D01*
X000717Y000304D01*
X000665Y000333D01*
X000614Y000366D01*
X000565Y000402D01*
X000519Y000440D01*
X000475Y000482D01*
X000433Y000526D01*
X000395Y000572D01*
X000359Y000621D01*
X000326Y000672D01*
X000297Y000724D01*
X000270Y000779D01*
X000247Y000834D01*
X000227Y000891D01*
X000211Y000950D01*
X000198Y001009D01*
X000189Y001068D01*
X000184Y001129D01*
X000182Y001189D01*
X000182Y002689D01*
X000182Y025189D01*
X010182Y015189D02*
X009682Y014689D01*
X009682Y013689D01*
X011182Y012189D01*
X011182Y003689D01*
X010182Y015189D02*
X013182Y015189D01*
X013682Y015689D01*
X013682Y016689D01*
X019402Y017799D02*
X021962Y017799D01*
D12*
X016682Y016949D02*
X016682Y016429D01*
X015682Y016429D02*
X015682Y016949D01*
X014682Y016949D02*
X014682Y016429D01*
X013682Y016429D02*
X013682Y016949D01*
X012682Y016949D02*
X012682Y016429D01*
X011682Y016429D02*
X011682Y016949D01*
X010682Y016949D02*
X010682Y016429D01*
X008242Y018289D02*
X007722Y018289D01*
X005242Y018289D02*
X004722Y018289D01*
X010682Y013949D02*
X010682Y013429D01*
X011682Y013429D02*
X011682Y013949D01*
X012682Y013949D02*
X012682Y013429D01*
X013682Y013429D02*
X013682Y013949D01*
X014682Y013949D02*
X014682Y013429D01*
X015682Y013429D02*
X015682Y013949D01*
X016682Y013949D02*
X016682Y013429D01*
X019922Y012189D02*
X020442Y012189D01*
X020442Y011189D02*
X019922Y011189D01*
X019922Y010189D02*
X020442Y010189D01*
X020442Y009189D02*
X019922Y009189D01*
X019922Y008189D02*
X020442Y008189D01*
X020442Y007189D02*
X019922Y007189D01*
X019922Y006189D02*
X020442Y006189D01*
X020442Y005189D02*
X019922Y005189D01*
X019922Y004189D02*
X020442Y004189D01*
X022922Y004189D02*
X023442Y004189D01*
X023442Y005189D02*
X022922Y005189D01*
X022922Y006189D02*
X023442Y006189D01*
X023442Y007189D02*
X022922Y007189D01*
X022922Y008189D02*
X023442Y008189D01*
X023442Y009189D02*
X022922Y009189D01*
X022922Y010189D02*
X023442Y010189D01*
X023442Y011189D02*
X022922Y011189D01*
X022922Y012189D02*
X023442Y012189D01*
X015702Y019189D02*
X015182Y019189D01*
X015182Y020189D02*
X015702Y020189D01*
X015702Y021189D02*
X015182Y021189D01*
X015182Y022189D02*
X015702Y022189D01*
X012182Y022189D02*
X011662Y022189D01*
X011662Y021189D02*
X012182Y021189D01*
X012182Y020189D02*
X011662Y020189D01*
X011662Y019189D02*
X012182Y019189D01*
X007442Y012189D02*
X006922Y012189D01*
X006922Y011189D02*
X007442Y011189D01*
X007442Y010189D02*
X006922Y010189D01*
X006922Y009189D02*
X007442Y009189D01*
X007442Y008189D02*
X006922Y008189D01*
X006922Y007189D02*
X007442Y007189D01*
X007442Y006189D02*
X006922Y006189D01*
X006922Y005189D02*
X007442Y005189D01*
X007442Y004189D02*
X006922Y004189D01*
X004442Y004189D02*
X003922Y004189D01*
X003922Y005189D02*
X004442Y005189D01*
X004442Y006189D02*
X003922Y006189D01*
X003922Y007189D02*
X004442Y007189D01*
X004442Y008189D02*
X003922Y008189D01*
X003922Y009189D02*
X004442Y009189D01*
X004442Y010189D02*
X003922Y010189D01*
X003922Y011189D02*
X004442Y011189D01*
X004442Y012189D02*
X003922Y012189D01*
D13*
X004682Y020689D03*
X003682Y021689D03*
X006682Y021689D03*
X008682Y020689D03*
X009682Y021689D03*
D14*
X008682Y025689D03*
X006682Y025689D03*
X004682Y025689D03*
D15*
X012182Y017989D03*
X015182Y017989D03*
X016532Y019189D03*
X017532Y018189D03*
X018182Y015689D03*
X018182Y014689D03*
X020182Y013689D03*
X023182Y013689D03*
X017182Y012189D03*
X017182Y011189D03*
X017182Y010189D03*
X017182Y009189D03*
X017182Y008189D03*
X017182Y007189D03*
X017182Y006189D03*
X017182Y005189D03*
X014182Y005189D03*
X013182Y005189D03*
X013182Y006189D03*
X014182Y006189D03*
X014182Y007189D03*
X013182Y007189D03*
X013182Y008189D03*
X014182Y008189D03*
X014182Y009189D03*
X014182Y010189D03*
X013182Y010189D03*
X013182Y009189D03*
X013182Y011189D03*
X014182Y011189D03*
X014182Y012189D03*
X013182Y012189D03*
X010182Y012189D03*
X010182Y011189D03*
X010182Y010189D03*
X010182Y009189D03*
X010182Y008189D03*
X010182Y007189D03*
X010182Y006189D03*
X010182Y005189D03*
X007182Y017239D03*
X004182Y017239D03*
X016532Y022189D03*
X017532Y021189D03*
X020682Y022189D03*
X021682Y022189D03*
X021682Y020689D03*
X022682Y020689D03*
D16*
X016182Y003986D02*
X016182Y003392D01*
X015182Y003392D02*
X015182Y003986D01*
X014182Y003986D02*
X014182Y003392D01*
X013182Y003392D02*
X013182Y003986D01*
X012182Y003986D02*
X012182Y003392D01*
X011182Y003392D02*
X011182Y003986D01*
D17*
X001682Y004189D03*
X001682Y002189D03*
X001682Y006189D03*
X001682Y008189D03*
X001682Y010189D03*
X001682Y012189D03*
X001682Y014189D03*
X001682Y016189D03*
X012682Y024739D03*
X014682Y024739D03*
X025682Y016189D03*
X025682Y014189D03*
X025682Y012189D03*
X025682Y010189D03*
X025682Y008189D03*
X025682Y006189D03*
X025682Y004189D03*
X025682Y002189D03*
D18*
X024682Y018439D03*
X024682Y021689D03*
D19*
X024682Y022689D03*
X024682Y019439D03*
D20*
X021682Y016189D03*
X021682Y015189D03*
X018682Y012189D03*
X018682Y011189D03*
X018682Y010189D03*
X018682Y009189D03*
X018682Y008189D03*
X018682Y007189D03*
X018682Y006189D03*
X018682Y005189D03*
X008682Y005189D03*
X008682Y006189D03*
X008682Y007189D03*
X008682Y008189D03*
X008682Y009189D03*
X008682Y010189D03*
X008682Y011189D03*
X008682Y012189D03*
X005682Y015189D03*
X005682Y016189D03*
D21*
X019102Y017799D02*
X019702Y017799D01*
X019702Y019579D02*
X019102Y019579D01*
X021662Y019579D02*
X022262Y019579D01*
X022262Y017799D02*
X021662Y017799D01*
X021682Y023889D02*
X021682Y024489D01*
X022682Y024489D02*
X022682Y023889D01*
X020682Y023889D02*
X020682Y024489D01*
D22*
X018682Y024689D03*
X018682Y020689D03*
D23*
X018382Y016989D02*
X018182Y016789D01*
X018182Y015689D01*
X017182Y015689D01*
X016682Y016189D01*
X016682Y016689D01*
X018382Y016989D02*
X022982Y016989D01*
X023182Y017189D01*
X023182Y020189D01*
X022682Y020689D01*
M02*
