%
M48
M72
T01C0.0320
T02C0.0394
T03C0.0400
T04C0.0440
T05C0.0850
T06C0.1220
%
T01
X4182Y4189
X4182Y5189
X4182Y6189
X4182Y7189
X4182Y8189
X4182Y9189
X4182Y10189
X4182Y11189
X4182Y12189
X7182Y12189
X7182Y11189
X7182Y10189
X7182Y9189
X7182Y8189
X7182Y7189
X7182Y6189
X7182Y5189
X7182Y4189
X8682Y5189
X8682Y6189
X8682Y7189
X8682Y8189
X8682Y9189
X8682Y10189
X8682Y11189
X8682Y12189
X10182Y12189
X10182Y11189
X10182Y10189
X10182Y9189
X10182Y8189
X10182Y7189
X10182Y6189
X10182Y5189
X13182Y5189
X14182Y5189
X14182Y6189
X14182Y7189
X13182Y7189
X13182Y6189
X13182Y8189
X14182Y8189
X14182Y9189
X14182Y10189
X13182Y10189
X13182Y9189
X13182Y11189
X14182Y11189
X14182Y12189
X13182Y12189
X13682Y13689
X14682Y13689
X15682Y13689
X16682Y13689
X17182Y12189
X17182Y11189
X17182Y10189
X17182Y9189
X17182Y8189
X17182Y7189
X17182Y6189
X17182Y5189
X18682Y5189
X18682Y6189
X18682Y7189
X18682Y8189
X18682Y9189
X18682Y10189
X18682Y11189
X18682Y12189
X20182Y12189
X20182Y11189
X20182Y10189
X20182Y9189
X20182Y8189
X20182Y7189
X20182Y6189
X20182Y5189
X20182Y4189
X23182Y4189
X23182Y5189
X23182Y6189
X23182Y7189
X23182Y8189
X23182Y9189
X23182Y10189
X23182Y11189
X23182Y12189
X23182Y13689
X21682Y15189
X21682Y16189
X20182Y13689
X18182Y14689
X18182Y15689
X16682Y16689
X15682Y16689
X14682Y16689
X13682Y16689
X12682Y16689
X11682Y16689
X10682Y16689
X12182Y17989
X12182Y19189
X12182Y20189
X12182Y21189
X12182Y22189
X15182Y22189
X15182Y21189
X15182Y20189
X15182Y19189
X15182Y17989
X16532Y19189
X17532Y18189
X17532Y21189
X16532Y22189
X20682Y22189
X21682Y22189
X21682Y20689
X22682Y20689
X24682Y21689
X24682Y22689
X24682Y19439
X24682Y18439
X12682Y13689
X11682Y13689
X10682Y13689
X7182Y17239
X7982Y18289
X5682Y16189
X5682Y15189
X4182Y17239
X4982Y18289
T02
X11182Y3689
X12182Y3689
X13182Y3689
X14182Y3689
X15182Y3689
X16182Y3689
T03
X1682Y2189
X1682Y4189
X1682Y6189
X1682Y8189
X1682Y10189
X1682Y12189
X1682Y14189
X1682Y16189
X4682Y20689
X3682Y21689
X6682Y21689
X8682Y20689
X9682Y21689
X12682Y24739
X14682Y24739
X19402Y19579
X19402Y17799
X21962Y17799
X21962Y19579
X25682Y16189
X25682Y14189
X25682Y12189
X25682Y10189
X25682Y8189
X25682Y6189
X25682Y4189
X25682Y2189
X22682Y24189
X21682Y24189
X20682Y24189
T04
X18682Y24689
X18682Y20689
T05
X8682Y25689
X6682Y25689
X4682Y25689
T06
X1982Y24889
X4182Y2189
X23182Y2189
X25382Y24889
M30
